# xmcd
# 
# Track frame offsets:
#     150
#     9450
#     20667
#     32985
#     44345
#     54790
#     68115
#     78767
#     90977
#     105110
#     126100
#     138605
# 
# Disc length: 2067
# 
# Revision: 10
# Processed by: cddbd v1.5.2PL0 Copyright (c) Steve Scherf et al.
# Submitted via: fre:ac v1.0.17
# 
DISCID=8b08110c
DTITLE=Johnny Winter - The Texas Tornado
DYEAR=1992
DGENRE=Blues
TTITLE0=Road Runner
TTITLE1=Gangster Of Love
TTITLE2=Leave My Woman Alone
TTITLE3=I Can't Believe You Want To Leave
TTITLE4=That's What Love Does
TTITLE5=Five After Four A.M.
TTITLE6=Out Of Sight
TTITLE7=Parchman Farm
TTITLE8=Low Down Gal Of Mine
TTITLE9=Goin' Down Slow
TTITLE10=Leaving Blues
TTITLE11=Kind Hearted Woman
EXTD=
EXTT0=
EXTT1=
EXTT2=
EXTT3=
EXTT4=
EXTT5=
EXTT6=
EXTT7=
EXTT8=
EXTT9=
EXTT10=
EXTT11=
PLAYORDER=
